<?xml version="1.0" standalone="no"?><!DOCTYPE svg PUBLIC "-//W3C//DTD SVG 1.1//EN" "http://www.w3.org/Graphics/SVG/1.1/DTD/svg11.dtd"><svg t="1537183349573" class="icon" style="" viewBox="0 0 1024 1024" version="1.1" xmlns="http://www.w3.org/2000/svg" p-id="1823" xmlns:xlink="http://www.w3.org/1999/xlink" width="128" height="128"><defs><style type="text/css"></style></defs><path d="M512 1024C229.888 1024 0 794.112 0 512S229.888 0 512 0s512 229.888 512 512-229.888 512-512 512z m0-960C265.216 64 64 265.216 64 512s201.216 448 448 448 448-201.216 448-448S758.784 64 512 64z" p-id="1824" fill="#1296db"></path><path d="M386.56 688.128c-17.92 0-37.376-3.072-59.392-9.728-21.504-6.656-42.496-22.528-67.072-41.472-35.328-26.624-74.752-57.344-109.056-49.664-24.576 5.632-48.64 30.72-71.68 75.264-8.192 15.872-27.648 22.016-43.008 13.824-15.872-8.192-22.016-27.648-13.824-43.008 32.768-62.976 70.144-98.304 114.176-108.032 62.976-13.824 117.76 27.648 161.792 61.44 17.92 13.824 36.352 27.648 47.104 31.232 82.432 25.6 111.616-23.04 156.16-110.592 16.384-32.256 33.28-66.048 55.808-91.648 19.968-23.04 41.984-37.888 60.928-51.2C657.92 337.92 684.032 320 684.032 241.152c0-96.768-90.624-171.52-91.648-172.032a31.846 31.846 0 0 1-4.608-45.056c11.264-13.824 31.232-15.872 45.056-4.608 4.608 3.584 115.2 94.72 115.2 221.696 0 113.152-49.664 146.944-93.696 176.64-17.408 11.776-34.304 23.04-48.64 39.936-17.408 19.968-31.744 48.64-47.104 79.36-32.768 64.512-76.288 151.04-172.032 151.04z m192.512 331.264c-10.752 0-20.992-5.12-27.136-14.848-25.088-39.936-45.568-134.656 55.808-210.944 86.528-64.512 218.112-57.344 298.496-17.408 15.872 7.68 22.528 27.136 14.848 43.008-7.68 15.872-27.136 22.528-43.008 14.848-64.512-31.744-168.96-35.84-232.448 11.264-77.312 57.856-44.032 118.784-39.936 125.44 9.216 14.848 5.12 34.816-10.24 44.032-4.608 3.072-10.752 4.608-16.384 4.608z" p-id="1825" fill="#1296db"></path></svg>